<?xml version="1.0" standalone="no"?>
<!DOCTYPE svg PUBLIC "-//W3C//DTD SVG 20010904//EN"
 "http://www.w3.org/TR/2001/REC-SVG-20010904/DTD/svg10.dtd">
<svg version="1.0" xmlns="http://www.w3.org/2000/svg"
 width="249.000000pt" height="249.000000pt" viewBox="0 0 249.000000 249.000000"
 preserveAspectRatio="xMidYMid meet">
<metadata>
Created by potrace 1.14, written by Peter Selinger 2001-2017
</metadata>
<g transform="translate(0.000000,249.000000) scale(0.100000,-0.100000)"
fill="#000000" stroke="none">
<path d="M692 2385 l-19 -40 563 0 c373 0 564 3 564 10 -1 5 -9 24 -18 40
l-17 31 -527 0 -526 -1 -20 -40z"/>
<path d="M1177 1908 c-8 -18 -86 -186 -172 -373 -87 -187 -173 -374 -192 -415
-20 -41 -61 -131 -93 -200 -32 -69 -78 -169 -104 -223 -25 -54 -46 -100 -46
-101 0 -2 -27 -62 -61 -132 -33 -71 -67 -142 -74 -159 -8 -16 -32 -70 -55
-120 -68 -147 -68 -135 -9 -135 l50 0 45 98 c25 53 55 117 66 142 11 25 58
126 103 225 46 99 103 225 128 280 25 55 63 138 85 185 44 94 76 164 162 350
31 69 69 150 83 180 14 30 43 93 64 140 22 47 48 104 58 128 10 23 21 42 24
42 3 0 36 -67 73 -148 76 -167 415 -908 579 -1264 59 -130 121 -264 135 -298
l27 -60 54 0 c30 0 52 3 50 8 -3 4 -75 158 -160 342 -85 184 -171 371 -192
415 -20 44 -62 134 -92 200 -30 66 -79 170 -107 230 -29 61 -113 242 -187 402
l-134 293 -46 0 c-43 0 -48 -3 -62 -32z"/>
</g>
</svg>
