<svg xmlns="http://www.w3.org/2000/svg" xmlns:xlink="http://www.w3.org/1999/xlink" width="512" zoomAndPan="magnify" viewBox="0 0 384 236.249991" height="315" preserveAspectRatio="xMidYMid meet" version="1.0"><defs><g/></defs><g fill="#000000" fill-opacity="1"><g transform="translate(107.275113, 131.230795)"><g><path d="M 26.546875 0 L 16.875 -15.6875 C 16.144531 -15.550781 15.226562 -15.484375 14.125 -15.484375 L 8.40625 -15.484375 L 8.40625 0 L 5.875 0 L 5.875 -36.875 L 14.28125 -36.875 C 16.21875 -36.875 18.078125 -36.492188 19.859375 -35.734375 C 21.648438 -34.972656 23.109375 -33.8125 24.234375 -32.25 C 25.359375 -30.695312 25.921875 -28.757812 25.921875 -26.4375 C 25.921875 -24.1875 25.398438 -22.148438 24.359375 -20.328125 C 23.316406 -18.515625 21.707031 -17.191406 19.53125 -16.359375 L 29.5 0 Z M 13.96875 -17.921875 C 17.332031 -17.921875 19.726562 -18.75 21.15625 -20.40625 C 22.59375 -22.070312 23.3125 -24.046875 23.3125 -26.328125 C 23.3125 -27.785156 22.957031 -29.132812 22.25 -30.375 C 21.539062 -31.625 20.53125 -32.613281 19.21875 -33.34375 C 17.90625 -34.070312 16.378906 -34.4375 14.640625 -34.4375 L 8.40625 -34.4375 L 8.40625 -17.921875 Z M 13.96875 -17.921875 "/></g></g></g><g fill="#000000" fill-opacity="1"><g transform="translate(140.14369, 131.230795)"><g><path d="M 24.3125 -32.71875 C 23.0625 -33.3125 21.671875 -33.8125 20.140625 -34.21875 C 18.617188 -34.632812 17.132812 -34.84375 15.6875 -34.84375 C 13.257812 -34.84375 11.316406 -34.242188 9.859375 -33.046875 C 8.410156 -31.859375 7.6875 -30.332031 7.6875 -28.46875 C 7.6875 -27.144531 8.078125 -26.023438 8.859375 -25.109375 C 9.640625 -24.191406 10.632812 -23.429688 11.84375 -22.828125 C 13.050781 -22.222656 14.609375 -21.554688 16.515625 -20.828125 C 18.585938 -20.066406 20.304688 -19.285156 21.671875 -18.484375 C 23.046875 -17.691406 24.203125 -16.609375 25.140625 -15.234375 C 26.078125 -13.867188 26.546875 -12.113281 26.546875 -9.96875 C 26.546875 -7.925781 26.054688 -6.117188 25.078125 -4.546875 C 24.109375 -2.972656 22.75 -1.75 21 -0.875 C 19.257812 -0.0078125 17.265625 0.421875 15.015625 0.421875 C 11.097656 0.421875 7.21875 -0.84375 3.375 -3.375 L 4.578125 -5.453125 C 5.859375 -4.484375 7.429688 -3.632812 9.296875 -2.90625 C 11.160156 -2.175781 12.976562 -1.8125 14.75 -1.8125 C 16.3125 -1.8125 17.789062 -2.113281 19.1875 -2.71875 C 20.59375 -3.332031 21.734375 -4.253906 22.609375 -5.484375 C 23.492188 -6.710938 23.9375 -8.191406 23.9375 -9.921875 C 23.9375 -11.546875 23.53125 -12.910156 22.71875 -14.015625 C 21.90625 -15.128906 20.882812 -16.019531 19.65625 -16.6875 C 18.425781 -17.363281 16.878906 -18.050781 15.015625 -18.75 C 12.929688 -19.507812 11.210938 -20.242188 9.859375 -20.953125 C 8.515625 -21.660156 7.382812 -22.601562 6.46875 -23.78125 C 5.550781 -24.957031 5.09375 -26.429688 5.09375 -28.203125 C 5.09375 -29.929688 5.53125 -31.460938 6.40625 -32.796875 C 7.289062 -34.128906 8.519531 -35.164062 10.09375 -35.90625 C 11.675781 -36.65625 13.4375 -37.046875 15.375 -37.078125 C 17.03125 -37.078125 18.75 -36.851562 20.53125 -36.40625 C 22.320312 -35.957031 23.910156 -35.382812 25.296875 -34.6875 Z M 24.3125 -32.71875 "/></g></g></g><g fill="#000000" fill-opacity="1"><g transform="translate(170.309375, 131.230795)"><g/></g></g><g fill="#000000" fill-opacity="1"><g transform="translate(186.250375, 131.230795)"><g/></g></g><g fill="#000000" fill-opacity="1"><g transform="translate(202.188637, 131.230795)"><g><path d="M 8.40625 -36.875 L 8.40625 -2.4375 L 28.625 -2.4375 L 28.625 0 L 5.875 0 L 5.875 -36.875 Z M 8.40625 -36.875 "/></g></g></g><g fill="#000000" fill-opacity="1"><g transform="translate(233.495497, 131.230795)"><g/></g></g><g fill="#000000" fill-opacity="1"><g transform="translate(249.436498, 131.230795)"><g/></g></g><g fill="#000000" fill-opacity="1"><g transform="translate(265.374763, 131.230795)"><g><path d="M 36.828125 -36.875 L 36.828125 0.890625 L 36.71875 0.890625 L 8.3125 -31.109375 L 8.359375 0 L 5.875 0 L 5.875 -37.65625 L 6.03125 -37.65625 L 34.4375 -5.40625 L 34.375 -36.875 Z M 36.828125 -36.875 "/></g></g></g><g fill="#000000" fill-opacity="1"><g transform="translate(267.64972, 93.701726)"><g><path d="M -33.921875 36.875 L -18.234375 -1.71875 L -2.546875 36.875 L -5.5 36.875 L -18.390625 4.265625 L -31 36.875 Z M -33.921875 36.875 "/></g></g></g><g fill="#000000" fill-opacity="1"><g transform="translate(205.398263, 93.701726)"><g><path d="M -33.921875 36.875 L -18.234375 -1.71875 L -2.546875 36.875 L -5.5 36.875 L -18.390625 4.265625 L -31 36.875 Z M -33.921875 36.875 "/></g></g></g><g fill="#000000" fill-opacity="1"><g transform="translate(112.402816, 93.701726)"><g><path d="M -33.921875 36.875 L -18.234375 -1.71875 L -2.546875 36.875 L -5.5 36.875 L -18.390625 4.265625 L -31 36.875 Z M -33.921875 36.875 "/></g></g></g><g fill="#000000" fill-opacity="1"><g transform="translate(176.927286, 84.109728)"><g><path d="M 19.171875 4.375 L 0 4.375 L 0 3.046875 L 19.171875 3.046875 Z M 19.171875 4.375 "/></g></g></g><g fill="#000000" fill-opacity="1"><g transform="translate(75.585578, 153.11083)"><g><path d="M 9.109375 -12.25 C 8.640625 -12.476562 8.117188 -12.664062 7.546875 -12.8125 C 6.972656 -12.96875 6.414062 -13.046875 5.875 -13.046875 C 4.96875 -13.046875 4.238281 -12.820312 3.6875 -12.375 C 3.144531 -11.925781 2.875 -11.351562 2.875 -10.65625 C 2.875 -10.164062 3.019531 -9.75 3.3125 -9.40625 C 3.601562 -9.0625 3.972656 -8.773438 4.421875 -8.546875 C 4.878906 -8.316406 5.46875 -8.066406 6.1875 -7.796875 C 6.96875 -7.515625 7.613281 -7.222656 8.125 -6.921875 C 8.632812 -6.628906 9.0625 -6.222656 9.40625 -5.703125 C 9.757812 -5.191406 9.9375 -4.535156 9.9375 -3.734375 C 9.9375 -2.972656 9.753906 -2.296875 9.390625 -1.703125 C 9.023438 -1.109375 8.515625 -0.648438 7.859375 -0.328125 C 7.210938 -0.00390625 6.46875 0.15625 5.625 0.15625 C 4.15625 0.15625 2.703125 -0.316406 1.265625 -1.265625 L 1.71875 -2.046875 C 2.195312 -1.679688 2.785156 -1.363281 3.484375 -1.09375 C 4.179688 -0.820312 4.863281 -0.6875 5.53125 -0.6875 C 6.113281 -0.6875 6.664062 -0.796875 7.1875 -1.015625 C 7.707031 -1.242188 8.132812 -1.585938 8.46875 -2.046875 C 8.800781 -2.515625 8.96875 -3.070312 8.96875 -3.71875 C 8.96875 -4.320312 8.8125 -4.832031 8.5 -5.25 C 8.195312 -5.664062 7.816406 -6 7.359375 -6.25 C 6.898438 -6.507812 6.320312 -6.765625 5.625 -7.015625 C 4.84375 -7.304688 4.195312 -7.582031 3.6875 -7.84375 C 3.1875 -8.113281 2.765625 -8.46875 2.421875 -8.90625 C 2.078125 -9.351562 1.90625 -9.90625 1.90625 -10.5625 C 1.90625 -11.207031 2.070312 -11.78125 2.40625 -12.28125 C 2.738281 -12.78125 3.195312 -13.171875 3.78125 -13.453125 C 4.375 -13.734375 5.035156 -13.878906 5.765625 -13.890625 C 6.378906 -13.890625 7.019531 -13.804688 7.6875 -13.640625 C 8.363281 -13.472656 8.957031 -13.257812 9.46875 -13 Z M 9.109375 -12.25 "/></g></g></g><g fill="#000000" fill-opacity="1"><g transform="translate(86.885968, 153.11083)"><g><path d="M 1.328125 -6.890625 C 1.328125 -8.160156 1.644531 -9.335938 2.28125 -10.421875 C 2.914062 -11.503906 3.769531 -12.363281 4.84375 -13 C 5.914062 -13.644531 7.085938 -13.96875 8.359375 -13.96875 C 9.628906 -13.96875 10.8125 -13.644531 11.90625 -13 C 13 -12.363281 13.863281 -11.503906 14.5 -10.421875 C 15.132812 -9.335938 15.453125 -8.160156 15.453125 -6.890625 C 15.453125 -5.617188 15.132812 -4.441406 14.5 -3.359375 C 13.863281 -2.273438 13 -1.414062 11.90625 -0.78125 C 10.8125 -0.15625 9.628906 0.15625 8.359375 0.15625 C 7.078125 0.15625 5.894531 -0.144531 4.8125 -0.75 C 3.738281 -1.363281 2.890625 -2.207031 2.265625 -3.28125 C 1.640625 -4.363281 1.328125 -5.566406 1.328125 -6.890625 Z M 2.296875 -6.859375 C 2.296875 -5.765625 2.566406 -4.75 3.109375 -3.8125 C 3.648438 -2.875 4.378906 -2.128906 5.296875 -1.578125 C 6.222656 -1.035156 7.238281 -0.765625 8.34375 -0.765625 C 9.457031 -0.765625 10.484375 -1.035156 11.421875 -1.578125 C 12.367188 -2.117188 13.113281 -2.859375 13.65625 -3.796875 C 14.195312 -4.742188 14.46875 -5.773438 14.46875 -6.890625 C 14.46875 -8.003906 14.191406 -9.03125 13.640625 -9.96875 C 13.085938 -10.90625 12.34375 -11.648438 11.40625 -12.203125 C 10.476562 -12.765625 9.460938 -13.046875 8.359375 -13.046875 C 7.242188 -13.046875 6.21875 -12.765625 5.28125 -12.203125 C 4.351562 -11.640625 3.625 -10.882812 3.09375 -9.9375 C 2.5625 -8.988281 2.296875 -7.960938 2.296875 -6.859375 Z M 2.296875 -6.859375 "/></g></g></g><g fill="#000000" fill-opacity="1"><g transform="translate(103.651781, 153.11083)"><g><path d="M 9.9375 -13.8125 L 9.9375 -12.890625 L 3.15625 -12.890625 L 3.15625 -7.203125 L 9.15625 -7.203125 L 9.15625 -6.296875 L 3.15625 -6.296875 L 3.15625 0 L 2.203125 0 L 2.203125 -13.8125 Z M 9.9375 -13.8125 "/></g></g></g><g fill="#000000" fill-opacity="1"><g transform="translate(114.89382, 153.11083)"><g><path d="M 10.140625 -13.8125 L 10.140625 -12.890625 L 6.0625 -12.890625 L 6.0625 0 L 5.109375 0 L 5.109375 -12.890625 L 1.09375 -12.890625 L 1.09375 -13.8125 Z M 10.140625 -13.8125 "/></g></g></g><g fill="#000000" fill-opacity="1"><g transform="translate(126.116409, 153.11083)"><g><path d="M 12.8125 0.625 L 9.65625 -7.6875 L 6.40625 0.640625 L 0.953125 -13.765625 L 2.046875 -13.765625 L 6.5 -1.59375 L 9.1875 -8.875 L 7.3125 -13.765625 L 8.265625 -13.765625 L 12.859375 -1.71875 L 17.359375 -13.765625 L 18.359375 -13.765625 Z M 12.8125 0.625 "/></g></g></g><g fill="#000000" fill-opacity="1"><g transform="translate(145.430147, 153.11083)"><g><path d="M 9.859375 -4.578125 L 3.78125 -4.578125 L 1.9375 0 L 0.984375 0 L 6.828125 -14.421875 L 6.90625 -14.421875 L 12.734375 0 L 11.671875 0 Z M 9.515625 -5.46875 L 6.84375 -12.25 L 4.125 -5.46875 Z M 9.515625 -5.46875 "/></g></g></g><g fill="#000000" fill-opacity="1"><g transform="translate(159.161773, 153.11083)"><g><path d="M 9.9375 0 L 6.328125 -5.875 C 6.046875 -5.820312 5.703125 -5.796875 5.296875 -5.796875 L 3.15625 -5.796875 L 3.15625 0 L 2.203125 0 L 2.203125 -13.8125 L 5.34375 -13.8125 C 6.070312 -13.8125 6.769531 -13.664062 7.4375 -13.375 C 8.101562 -13.09375 8.644531 -12.660156 9.0625 -12.078125 C 9.488281 -11.492188 9.703125 -10.769531 9.703125 -9.90625 C 9.703125 -9.0625 9.507812 -8.296875 9.125 -7.609375 C 8.738281 -6.929688 8.132812 -6.4375 7.3125 -6.125 L 11.046875 0 Z M 5.234375 -6.71875 C 6.492188 -6.71875 7.390625 -7.023438 7.921875 -7.640625 C 8.460938 -8.265625 8.734375 -9.003906 8.734375 -9.859375 C 8.734375 -10.410156 8.597656 -10.914062 8.328125 -11.375 C 8.066406 -11.84375 7.6875 -12.210938 7.1875 -12.484375 C 6.695312 -12.753906 6.128906 -12.890625 5.484375 -12.890625 L 3.15625 -12.890625 L 3.15625 -6.71875 Z M 5.234375 -6.71875 "/></g></g></g><g fill="#000000" fill-opacity="1"><g transform="translate(171.473551, 153.11083)"><g><path d="M 10.71875 -13.8125 L 10.71875 -12.890625 L 3.15625 -12.890625 L 3.15625 -7.40625 L 9.953125 -7.40625 L 9.953125 -6.5 L 3.15625 -6.5 L 3.15625 -0.921875 L 10.984375 -0.921875 L 10.984375 0 L 2.203125 0 L 2.203125 -13.8125 Z M 10.71875 -13.8125 "/></g></g></g><g fill="#000000" fill-opacity="1"><g transform="translate(183.902032, 153.11083)"><g/></g></g><g fill="#000000" fill-opacity="1"><g transform="translate(189.873154, 153.11083)"><g><path d="M 2.203125 -13.8125 L 5.609375 -13.8125 C 7.285156 -13.8125 8.675781 -13.46875 9.78125 -12.78125 C 10.894531 -12.09375 11.707031 -11.21875 12.21875 -10.15625 C 12.738281 -9.09375 13 -7.984375 13 -6.828125 C 13 -5.484375 12.6875 -4.289062 12.0625 -3.25 C 11.445312 -2.207031 10.625 -1.40625 9.59375 -0.84375 C 8.5625 -0.28125 7.453125 0 6.265625 0 L 2.203125 0 Z M 6.015625 -0.921875 C 7.128906 -0.921875 8.140625 -1.160156 9.046875 -1.640625 C 9.960938 -2.128906 10.6875 -2.820312 11.21875 -3.71875 C 11.75 -4.625 12.015625 -5.679688 12.015625 -6.890625 C 12.015625 -7.960938 11.769531 -8.957031 11.28125 -9.875 C 10.800781 -10.789062 10.085938 -11.519531 9.140625 -12.0625 C 8.191406 -12.601562 7.054688 -12.875 5.734375 -12.875 L 3.15625 -12.875 L 3.15625 -0.921875 Z M 6.015625 -0.921875 "/></g></g></g><g fill="#000000" fill-opacity="1"><g transform="translate(204.18828, 153.11083)"><g><path d="M 10.71875 -13.8125 L 10.71875 -12.890625 L 3.15625 -12.890625 L 3.15625 -7.40625 L 9.953125 -7.40625 L 9.953125 -6.5 L 3.15625 -6.5 L 3.15625 -0.921875 L 10.984375 -0.921875 L 10.984375 0 L 2.203125 0 L 2.203125 -13.8125 Z M 10.71875 -13.8125 "/></g></g></g><g fill="#000000" fill-opacity="1"><g transform="translate(216.616761, 153.11083)"><g><path d="M 12.703125 -13.8125 L 6.828125 0.640625 L 0.953125 -13.8125 L 2.0625 -13.8125 L 6.890625 -1.59375 L 11.609375 -13.8125 Z M 12.703125 -13.8125 "/></g></g></g><g fill="#000000" fill-opacity="1"><g transform="translate(230.270585, 153.11083)"><g><path d="M 10.71875 -13.8125 L 10.71875 -12.890625 L 3.15625 -12.890625 L 3.15625 -7.40625 L 9.953125 -7.40625 L 9.953125 -6.5 L 3.15625 -6.5 L 3.15625 -0.921875 L 10.984375 -0.921875 L 10.984375 0 L 2.203125 0 L 2.203125 -13.8125 Z M 10.71875 -13.8125 "/></g></g></g><g fill="#000000" fill-opacity="1"><g transform="translate(242.699066, 153.11083)"><g><path d="M 3.15625 -13.8125 L 3.15625 -0.921875 L 10.71875 -0.921875 L 10.71875 0 L 2.203125 0 L 2.203125 -13.8125 Z M 3.15625 -13.8125 "/></g></g></g><g fill="#000000" fill-opacity="1"><g transform="translate(254.427355, 153.11083)"><g><path d="M 1.328125 -6.890625 C 1.328125 -8.160156 1.644531 -9.335938 2.28125 -10.421875 C 2.914062 -11.503906 3.769531 -12.363281 4.84375 -13 C 5.914062 -13.644531 7.085938 -13.96875 8.359375 -13.96875 C 9.628906 -13.96875 10.8125 -13.644531 11.90625 -13 C 13 -12.363281 13.863281 -11.503906 14.5 -10.421875 C 15.132812 -9.335938 15.453125 -8.160156 15.453125 -6.890625 C 15.453125 -5.617188 15.132812 -4.441406 14.5 -3.359375 C 13.863281 -2.273438 13 -1.414062 11.90625 -0.78125 C 10.8125 -0.15625 9.628906 0.15625 8.359375 0.15625 C 7.078125 0.15625 5.894531 -0.144531 4.8125 -0.75 C 3.738281 -1.363281 2.890625 -2.207031 2.265625 -3.28125 C 1.640625 -4.363281 1.328125 -5.566406 1.328125 -6.890625 Z M 2.296875 -6.859375 C 2.296875 -5.765625 2.566406 -4.75 3.109375 -3.8125 C 3.648438 -2.875 4.378906 -2.128906 5.296875 -1.578125 C 6.222656 -1.035156 7.238281 -0.765625 8.34375 -0.765625 C 9.457031 -0.765625 10.484375 -1.035156 11.421875 -1.578125 C 12.367188 -2.117188 13.113281 -2.859375 13.65625 -3.796875 C 14.195312 -4.742188 14.46875 -5.773438 14.46875 -6.890625 C 14.46875 -8.003906 14.191406 -9.03125 13.640625 -9.96875 C 13.085938 -10.90625 12.34375 -11.648438 11.40625 -12.203125 C 10.476562 -12.765625 9.460938 -13.046875 8.359375 -13.046875 C 7.242188 -13.046875 6.21875 -12.765625 5.28125 -12.203125 C 4.351562 -11.640625 3.625 -10.882812 3.09375 -9.9375 C 2.5625 -8.988281 2.296875 -7.960938 2.296875 -6.859375 Z M 2.296875 -6.859375 "/></g></g></g><g fill="#000000" fill-opacity="1"><g transform="translate(271.193179, 153.11083)"><g><path d="M 5.390625 -13.8125 C 6.703125 -13.8125 7.742188 -13.476562 8.515625 -12.8125 C 9.285156 -12.144531 9.671875 -11.175781 9.671875 -9.90625 C 9.671875 -9.175781 9.515625 -8.5 9.203125 -7.875 C 8.890625 -7.25 8.40625 -6.742188 7.75 -6.359375 C 7.09375 -5.984375 6.273438 -5.796875 5.296875 -5.796875 L 3.15625 -5.796875 L 3.15625 0 L 2.203125 0 L 2.203125 -13.8125 Z M 5.296875 -6.71875 C 6.117188 -6.71875 6.789062 -6.882812 7.3125 -7.21875 C 7.832031 -7.550781 8.195312 -7.960938 8.40625 -8.453125 C 8.625 -8.941406 8.734375 -9.425781 8.734375 -9.90625 C 8.734375 -10.800781 8.445312 -11.519531 7.875 -12.0625 C 7.300781 -12.613281 6.503906 -12.890625 5.484375 -12.890625 L 3.15625 -12.890625 L 3.15625 -6.71875 Z M 5.296875 -6.71875 "/></g></g></g><g fill="#000000" fill-opacity="1"><g transform="translate(281.968419, 153.11083)"><g><path d="M 10.71875 -13.8125 L 10.71875 -12.890625 L 3.15625 -12.890625 L 3.15625 -7.40625 L 9.953125 -7.40625 L 9.953125 -6.5 L 3.15625 -6.5 L 3.15625 -0.921875 L 10.984375 -0.921875 L 10.984375 0 L 2.203125 0 L 2.203125 -13.8125 Z M 10.71875 -13.8125 "/></g></g></g><g fill="#000000" fill-opacity="1"><g transform="translate(294.396888, 153.11083)"><g><path d="M 9.9375 0 L 6.328125 -5.875 C 6.046875 -5.820312 5.703125 -5.796875 5.296875 -5.796875 L 3.15625 -5.796875 L 3.15625 0 L 2.203125 0 L 2.203125 -13.8125 L 5.34375 -13.8125 C 6.070312 -13.8125 6.769531 -13.664062 7.4375 -13.375 C 8.101562 -13.09375 8.644531 -12.660156 9.0625 -12.078125 C 9.488281 -11.492188 9.703125 -10.769531 9.703125 -9.90625 C 9.703125 -9.0625 9.507812 -8.296875 9.125 -7.609375 C 8.738281 -6.929688 8.132812 -6.4375 7.3125 -6.125 L 11.046875 0 Z M 5.234375 -6.71875 C 6.492188 -6.71875 7.390625 -7.023438 7.921875 -7.640625 C 8.460938 -8.265625 8.734375 -9.003906 8.734375 -9.859375 C 8.734375 -10.410156 8.597656 -10.914062 8.328125 -11.375 C 8.066406 -11.84375 7.6875 -12.210938 7.1875 -12.484375 C 6.695312 -12.753906 6.128906 -12.890625 5.484375 -12.890625 L 3.15625 -12.890625 L 3.15625 -6.71875 Z M 5.234375 -6.71875 "/></g></g></g></svg>