<svg xmlns="http://www.w3.org/2000/svg" xmlns:xlink="http://www.w3.org/1999/xlink" width="492" zoomAndPan="magnify" viewBox="0 0 369 291.749983" height="389" preserveAspectRatio="xMidYMid meet" version="1.0"><defs><g/><clipPath id="bceedf9b66"><path d="M 89.039062 74.9375 L 227.667969 74.9375 L 227.667969 213.566406 L 89.039062 213.566406 Z M 89.039062 74.9375 " clip-rule="nonzero"/></clipPath><clipPath id="83dbc8a2f8"><path d="M 89.039062 78.039062 L 227.667969 78.039062 L 227.667969 216.667969 L 89.039062 216.667969 Z M 89.039062 78.039062 " clip-rule="nonzero"/></clipPath><clipPath id="b181f85451"><path d="M 190 131.496094 L 293.789062 131.496094 L 293.789062 153 L 190 153 Z M 190 131.496094 " clip-rule="nonzero"/></clipPath></defs><g clip-path="url(#bceedf9b66)"><path fill="#514343" d="M 158.355469 213.566406 C 120.144531 213.566406 89.039062 182.460938 89.039062 144.25 C 89.039062 106.042969 120.144531 74.9375 158.355469 74.9375 C 196.5625 74.9375 227.667969 106.042969 227.667969 144.25 C 227.667969 182.460938 196.5625 213.566406 158.355469 213.566406 Z M 158.355469 75.960938 C 120.691406 75.960938 90.0625 106.589844 90.0625 144.25 C 90.0625 181.914062 120.691406 212.542969 158.355469 212.542969 C 196.015625 212.542969 226.644531 181.914062 226.644531 144.25 C 226.644531 106.589844 196.015625 75.960938 158.355469 75.960938 Z M 158.355469 75.960938 " fill-opacity="1" fill-rule="nonzero"/></g><g clip-path="url(#83dbc8a2f8)"><path fill="#514343" d="M 158.355469 216.667969 C 120.144531 216.667969 89.039062 185.5625 89.039062 147.351562 C 89.039062 109.144531 120.144531 78.039062 158.355469 78.039062 C 196.5625 78.039062 227.667969 109.144531 227.667969 147.351562 C 227.667969 185.5625 196.5625 216.667969 158.355469 216.667969 Z M 158.355469 79.0625 C 120.691406 79.0625 90.0625 109.691406 90.0625 147.351562 C 90.0625 185.015625 120.691406 215.644531 158.355469 215.644531 C 196.015625 215.644531 226.644531 185.015625 226.644531 147.351562 C 226.644531 109.691406 196.015625 79.0625 158.355469 79.0625 Z M 158.355469 79.0625 " fill-opacity="1" fill-rule="nonzero"/></g><g clip-path="url(#b181f85451)"><path fill="#514343" d="M 292.398438 131.804688 C 291.785156 131.535156 291.0625 131.507812 291.140625 132.367188 C 291.273438 133.941406 290.339844 135.761719 289.484375 137.046875 C 288.574219 138.4375 287.34375 139.558594 285.925781 140.441406 C 281.859375 142.929688 277.230469 144.265625 272.472656 144.402344 C 270.0625 144.453125 267.710938 144.214844 265.328125 143.917969 C 260.40625 143.277344 255.269531 142.527344 250.324219 143.25 C 249.441406 143.382812 248.558594 143.597656 247.703125 143.945312 C 247.328125 144.105469 247.058594 144 246.765625 143.757812 C 244.757812 142.128906 242.40625 141.246094 239.863281 140.816406 C 237.027344 140.308594 234.191406 140.574219 231.359375 140.925781 C 228.335938 141.273438 225.390625 141.992188 222.53125 143.011719 C 218.4375 144.453125 214.453125 146.191406 210.492188 147.957031 C 208.328125 148.921875 206.132812 149.855469 203.832031 150.390625 C 201.71875 150.875 199.179688 151.195312 197.117188 150.363281 C 195.835938 149.855469 194.792969 148.921875 194.285156 147.636719 C 193.722656 146.191406 193.5625 144.613281 193.75 143.117188 C 193.855469 142.449219 193.988281 141.726562 194.285156 141.109375 C 194.523438 140.601562 195.003906 139.933594 194.417969 139.480469 C 193.214844 138.515625 191.5 139.878906 191.046875 141.003906 C 189.628906 144.5625 190.992188 148.546875 194.070312 150.710938 C 196.929688 152.746094 200.890625 153.226562 204.289062 152.585938 C 207.070312 152.078125 209.664062 151.007812 212.207031 149.777344 C 215.84375 148.039062 219.507812 146.40625 223.253906 144.910156 C 227.71875 143.117188 232.589844 142.074219 237.402344 141.96875 C 239.007812 141.941406 240.667969 142.074219 242.21875 142.527344 C 243.609375 142.957031 245 143.464844 246.042969 144.589844 C 245.988281 144.535156 245.265625 145.121094 245.1875 145.175781 C 244.171875 146.03125 243.769531 147.289062 243.875 148.574219 C 243.929688 149.269531 244.089844 149.9375 244.652344 150.417969 C 246.632812 152.101562 248.609375 148.839844 248.609375 147.101562 C 248.609375 146.378906 248.289062 145.765625 248.023438 145.121094 C 247.96875 144.960938 249.171875 144.667969 249.28125 144.640625 C 250.054688 144.425781 250.777344 144.292969 251.554688 144.242188 C 254.789062 144 258.027344 144.265625 261.234375 144.613281 C 263.75 144.910156 266.210938 145.445312 268.726562 145.710938 C 273.566406 146.246094 278.273438 146.058594 282.847656 144.214844 C 284.667969 143.492188 286.40625 142.636719 288.066406 141.621094 C 289.484375 140.761719 290.742188 139.613281 291.703125 138.277344 C 292.480469 137.234375 293.203125 136.03125 293.496094 134.746094 C 293.789062 133.648438 293.523438 132.3125 292.398438 131.804688 Z M 246.496094 148.707031 C 246.285156 149.054688 245.9375 149.667969 245.480469 149.75 C 245.132812 149.804688 245.054688 149.242188 245 149 C 244.945312 148.625 245 148.253906 245.054688 147.878906 C 245.160156 147.289062 245.480469 146.753906 245.882812 146.328125 C 245.960938 146.246094 246.710938 145.605469 246.738281 145.65625 C 247.03125 146.058594 247.167969 146.648438 247.113281 147.15625 C 247.085938 147.691406 246.792969 148.226562 246.496094 148.707031 Z M 246.496094 148.707031 " fill-opacity="1" fill-rule="nonzero"/></g><g fill="#514343" fill-opacity="1"><g transform="translate(116.742613, 155.565526)"><g><path d="M 1.25 8.175781 C 1.621094 8.175781 1.914062 8.027344 2.210938 7.730469 C 2.726562 7.144531 3.167969 6.480469 3.535156 5.742188 C 4.050781 4.785156 4.492188 3.902344 4.933594 2.945312 C 5.300781 1.988281 5.742188 1.105469 6.1875 0.148438 C 7.144531 -1.988281 8.175781 -4.050781 9.132812 -6.1875 C 10.089844 -8.246094 11.046875 -10.308594 12.003906 -12.371094 C 15.390625 -19.367188 20.914062 -28.570312 27.171875 -33.285156 C 27.394531 -33.359375 27.542969 -33.507812 27.761719 -33.652344 C 27.984375 -33.726562 28.203125 -33.875 28.425781 -33.949219 L 28.570312 -33.949219 C 28.792969 -33.949219 28.941406 -33.875 28.941406 -33.652344 C 28.941406 -33.359375 28.941406 -33.0625 28.941406 -32.769531 C 28.941406 -32.476562 28.867188 -32.179688 28.792969 -31.960938 C 28.5 -29.898438 27.910156 -27.910156 27.320312 -25.921875 C 26.363281 -22.753906 25.332031 -19.589844 24.449219 -16.421875 C 23.859375 -14.140625 23.417969 -11.929688 23.195312 -9.351562 C 23.269531 -9.132812 23.269531 -8.835938 23.269531 -8.542969 C 23.195312 -8.246094 23.269531 -7.953125 23.34375 -7.660156 C 23.566406 -6.40625 24.152344 -5.816406 25.039062 -5.816406 C 25.480469 -5.816406 25.921875 -5.964844 26.363281 -6.257812 C 27.027344 -6.628906 27.6875 -7.214844 28.351562 -8.027344 C 29.160156 -9.058594 29.972656 -10.089844 30.707031 -11.046875 C 32.546875 -13.625 34.390625 -15.90625 36.453125 -18.1875 C 36.820312 -18.484375 37.113281 -18.777344 37.410156 -19.144531 C 37.703125 -19.441406 38.070312 -19.734375 38.441406 -19.957031 C 38.808594 -20.175781 39.101562 -20.324219 39.324219 -20.324219 C 40.207031 -20.324219 40.355469 -18.925781 40.574219 -18.261719 C 40.648438 -17.601562 40.796875 -17.011719 40.871094 -16.421875 C 40.945312 -15.757812 41.089844 -15.097656 41.164062 -14.433594 C 41.3125 -13.550781 41.460938 -12.667969 41.605469 -11.78125 C 41.753906 -10.824219 41.902344 -9.941406 42.121094 -8.984375 C 42.5625 -6.921875 44.476562 -4.125 46.613281 -4.125 C 47.203125 -4.125 47.941406 -4.34375 48.824219 -4.714844 C 50.441406 -5.597656 56.921875 -13.625 57.511719 -15.464844 C 57.585938 -15.832031 57.511719 -16.054688 57.144531 -16.199219 C 57.070312 -16.273438 56.851562 -16.347656 56.628906 -16.347656 C 56.40625 -16.347656 56.335938 -16.347656 56.261719 -16.273438 C 56.039062 -16.199219 55.890625 -16.054688 55.671875 -15.832031 C 53.832031 -13.328125 52.359375 -11.339844 51.253906 -9.792969 C 50.148438 -8.246094 49.339844 -7.363281 48.96875 -7.070312 C 48.160156 -6.40625 47.425781 -6.113281 46.761719 -6.113281 C 44.40625 -6.113281 43.816406 -10.015625 43.375 -12.152344 L 42.488281 -18.628906 C 42.121094 -20.617188 41.53125 -22.3125 39.175781 -22.3125 C 38.367188 -22.238281 37.703125 -21.945312 37.039062 -21.355469 C 35.9375 -20.398438 35.050781 -19.515625 34.167969 -18.410156 C 32.105469 -16.128906 30.414062 -13.84375 28.570312 -11.414062 C 27.910156 -10.457031 27.097656 -9.574219 26.289062 -8.691406 C 26.140625 -8.46875 25.921875 -8.320312 25.699219 -8.320312 C 25.554688 -8.320312 25.480469 -8.320312 25.40625 -8.394531 C 25.183594 -8.542969 25.109375 -8.835938 25.109375 -9.203125 C 25.109375 -10.898438 25.480469 -12.445312 25.847656 -13.992188 C 26.65625 -17.304688 27.542969 -20.472656 28.644531 -23.710938 C 29.457031 -26.289062 30.191406 -28.792969 30.707031 -31.371094 C 30.929688 -32.476562 31.003906 -33.652344 30.78125 -34.757812 C 30.488281 -35.9375 29.75 -36.230469 28.644531 -36.230469 C 28.425781 -36.15625 28.203125 -36.082031 27.984375 -36.011719 C 27.761719 -35.9375 27.542969 -35.789062 27.320312 -35.714844 C 19.292969 -30.339844 12.960938 -19.144531 8.910156 -10.457031 C 8.101562 -8.617188 7.214844 -6.847656 6.40625 -5.007812 C 5.597656 -3.167969 4.714844 -1.324219 3.902344 0.515625 C 3.753906 0.882812 3.609375 1.25 3.460938 1.621094 C 3.238281 1.988281 3.09375 2.355469 2.945312 2.726562 C 2.871094 2.796875 2.796875 2.945312 2.726562 3.09375 C 2.652344 3.238281 2.503906 3.3125 2.28125 3.3125 C 2.0625 3.3125 1.914062 3.238281 1.988281 3.09375 C 1.988281 2.871094 1.988281 2.726562 1.988281 2.578125 C 1.988281 2.28125 2.0625 1.914062 2.136719 1.398438 C 2.726562 -3.3125 3.683594 -7.804688 5.082031 -12.222656 C 6.039062 -15.464844 7.070312 -18.703125 8.175781 -21.871094 C 9.203125 -25.039062 10.234375 -28.277344 11.265625 -31.519531 C 11.78125 -33.0625 12.222656 -34.535156 12.667969 -36.082031 C 13.035156 -37.554688 13.550781 -39.027344 14.140625 -40.5 C 14.359375 -41.015625 14.285156 -41.460938 13.769531 -41.753906 C 13.695312 -41.828125 13.625 -41.828125 13.402344 -41.828125 C 13.109375 -41.828125 12.8125 -41.679688 12.519531 -41.3125 C 12.296875 -40.945312 12.078125 -40.5 11.929688 -40.132812 C 11.78125 -39.691406 11.636719 -39.25 11.488281 -38.882812 L 6.847656 -24.152344 C 4.785156 -17.671875 2.652344 -11.414062 1.25 -4.714844 C 0.589844 -1.472656 -0.0742188 1.621094 0 5.082031 C 0 5.449219 0 5.742188 0 6.113281 C 0 6.480469 0.0742188 6.847656 0.148438 7.214844 C 0.292969 7.878906 0.664062 8.175781 1.25 8.175781 Z M 1.25 8.175781 "/></g></g></g><g fill="#514343" fill-opacity="1"><g transform="translate(170.56412, 155.565526)"><g><path d="M 0.367188 -6.332031 C 1.324219 -6.332031 2.578125 -7.363281 3.238281 -7.953125 C 5.082031 -9.648438 6.703125 -11.414062 8.394531 -13.402344 C 8.617188 -13.625 8.910156 -13.917969 9.132812 -14.210938 C 9.351562 -14.507812 9.71875 -14.726562 10.234375 -14.949219 C 9.71875 -12.960938 9.277344 -11.046875 9.277344 -9.058594 C 9.277344 -7.660156 9.867188 -6.921875 11.121094 -6.921875 C 11.414062 -6.921875 11.636719 -6.921875 11.78125 -6.996094 C 14.875 -7.511719 20.105469 -12.445312 22.238281 -14.582031 C 22.3125 -14.65625 22.460938 -14.800781 22.535156 -14.875 C 22.605469 -14.949219 22.605469 -15.023438 22.679688 -15.097656 C 22.828125 -15.613281 22.753906 -15.980469 22.386719 -16.199219 C 22.238281 -16.347656 22.09375 -16.421875 21.871094 -16.421875 C 21.796875 -16.421875 21.722656 -16.347656 21.503906 -16.273438 C 21.28125 -16.128906 21.0625 -15.980469 20.914062 -15.832031 C 20.691406 -15.613281 20.472656 -15.464844 20.25 -15.242188 C 19.589844 -14.726562 19 -14.210938 18.484375 -13.695312 C 17.894531 -13.179688 17.304688 -12.59375 16.644531 -12.078125 C 15.757812 -11.265625 14.800781 -10.679688 13.917969 -10.089844 C 13.253906 -9.71875 12.59375 -9.425781 11.929688 -9.132812 C 11.855469 -9.058594 11.78125 -9.058594 11.636719 -9.058594 C 11.339844 -9.058594 11.191406 -9.277344 11.191406 -9.71875 C 11.191406 -12.886719 13.476562 -18.261719 14.875 -21.0625 C 15.023438 -21.429688 15.167969 -21.722656 15.390625 -22.09375 C 15.539062 -22.386719 15.683594 -22.679688 15.832031 -23.050781 C 16.054688 -23.710938 15.980469 -24.226562 15.464844 -24.523438 C 15.242188 -24.59375 15.097656 -24.667969 15.023438 -24.667969 C 14.800781 -24.667969 14.507812 -24.523438 14.140625 -24.152344 C 13.917969 -23.933594 13.769531 -23.636719 13.625 -23.417969 C 13.402344 -23.121094 13.253906 -22.828125 13.035156 -22.605469 C 12.59375 -22.019531 12.152344 -21.429688 11.78125 -20.839844 C 11.339844 -20.25 10.898438 -19.660156 10.457031 -19.144531 C 10.164062 -18.777344 9.941406 -18.558594 9.792969 -18.558594 C 9.71875 -18.558594 9.5 -18.703125 9.132812 -18.925781 C 8.394531 -19.515625 7.660156 -19.808594 6.921875 -19.808594 C 6.113281 -19.808594 5.300781 -19.515625 4.492188 -18.851562 C 3.976562 -18.484375 3.609375 -18.1875 3.386719 -17.894531 C 1.179688 -15.683594 -1.25 -11.339844 -1.25 -8.101562 C -1.179688 -6.921875 -0.589844 -6.332031 0.367188 -6.332031 Z M 1.03125 -8.984375 C 1.03125 -9.058594 1.03125 -9.058594 0.957031 -9.058594 L 0.882812 -9.132812 C 1.472656 -12.296875 2.945312 -14.949219 5.226562 -16.9375 C 5.597656 -17.304688 6.480469 -17.820312 6.996094 -17.820312 C 7.363281 -17.820312 7.660156 -17.671875 8.027344 -17.453125 C 8.394531 -17.230469 8.46875 -16.863281 8.320312 -16.421875 C 8.246094 -16.199219 8.101562 -16.128906 8.027344 -16.054688 C 6.039062 -13.625 4.050781 -11.191406 1.695312 -9.203125 C 1.546875 -9.058594 1.324219 -8.984375 1.03125 -8.984375 Z M 1.03125 -8.984375 "/></g></g></g><g fill="#000000" fill-opacity="1"><g transform="translate(105.205968, 128.28513)"><g><path d="M -2.21875 -6.921875 L 2.09375 -5.171875 L 1.921875 -4.734375 L -1.53125 -6.140625 L 0.6875 -3.265625 L 0.609375 -3.0625 L -2.96875 -2.53125 L 0.46875 -1.140625 L 0.28125 -0.6875 L -4.03125 -2.4375 L -3.875 -2.828125 L 0.09375 -3.40625 L -2.359375 -6.5625 Z M -2.21875 -6.921875 "/></g></g></g><g fill="#000000" fill-opacity="1"><g transform="translate(109.471306, 118.841107)"><g><path d="M 1.4375 -2.1875 C 1.125 -1.6875 0.726562 -1.382812 0.25 -1.28125 C -0.226562 -1.1875 -0.75 -1.3125 -1.3125 -1.65625 L -3.5625 -3.078125 L -3.296875 -3.484375 L -1.046875 -2.078125 C -0.597656 -1.796875 -0.195312 -1.6875 0.15625 -1.75 C 0.507812 -1.820312 0.804688 -2.050781 1.046875 -2.4375 C 1.296875 -2.832031 1.375 -3.203125 1.28125 -3.546875 C 1.1875 -3.898438 0.914062 -4.21875 0.46875 -4.5 L -1.78125 -5.90625 L -1.53125 -6.3125 L 0.71875 -4.890625 C 1.28125 -4.546875 1.617188 -4.132812 1.734375 -3.65625 C 1.859375 -3.1875 1.757812 -2.695312 1.4375 -2.1875 Z M 1.4375 -2.1875 "/></g></g></g><g fill="#000000" fill-opacity="1"><g transform="translate(114.688205, 111.147118)"><g><path d="M -0.40625 -6.5625 L 3.078125 -3.46875 L 2.765625 -3.109375 L 1.171875 -4.53125 L -0.765625 -2.359375 L 0.828125 -0.9375 L 0.5 -0.5625 L -2.984375 -3.65625 L -2.65625 -4.03125 L -1.09375 -2.65625 L 0.84375 -4.828125 L -0.71875 -6.203125 Z M -0.40625 -6.5625 "/></g></g></g><g fill="#000000" fill-opacity="1"><g transform="translate(121.220699, 104.332353)"><g><path d="M 2.0625 -3.265625 L 0.0625 -1.625 L 0.40625 -0.328125 L 0.015625 -0.015625 L -1.28125 -4.953125 L -0.90625 -5.265625 L 3.6875 -3 L 3.28125 -2.671875 Z M 1.6875 -3.484375 L -0.765625 -4.71875 L -0.046875 -2.078125 Z M 1.6875 -3.484375 "/></g></g></g><g fill="#000000" fill-opacity="1"><g transform="translate(128.221435, 99.007816)"><g><path d="M 2.578125 -6.796875 L 4.859375 -2.734375 L 4.453125 -2.5 L 2.640625 -5.75 L 2.5625 -2.125 L 2.375 -2.015625 L -0.734375 -3.84375 L 1.078125 -0.609375 L 0.65625 -0.359375 L -1.625 -4.421875 L -1.265625 -4.625 L 2.1875 -2.609375 L 2.25 -6.59375 Z M 2.578125 -6.796875 "/></g></g></g><g fill="#000000" fill-opacity="1"><g transform="translate(137.42454, 94.266824)"><g><path d="M 3.78125 -6.203125 L 5.28125 -1.796875 L 4.84375 -1.640625 L 3.640625 -5.15625 L 2.921875 -1.625 L 2.71875 -1.546875 L -0.015625 -3.890625 L 1.171875 -0.390625 L 0.703125 -0.234375 L -0.796875 -4.640625 L -0.40625 -4.78125 L 2.625 -2.171875 L 3.40625 -6.078125 Z M 3.78125 -6.203125 "/></g></g></g><g fill="#000000" fill-opacity="1"><g transform="translate(147.366419, 91.324197)"><g><path d="M 3.4375 -1.796875 L 0.875 -1.390625 L 0.53125 -0.078125 L 0.015625 0 L 1.375 -4.921875 L 1.859375 -5 L 4.6875 -0.75 L 4.1875 -0.65625 Z M 3.203125 -2.171875 L 1.703125 -4.46875 L 1 -1.828125 Z M 3.203125 -2.171875 "/></g></g></g><g fill="#000000" fill-opacity="1"><g transform="translate(156.104173, 90.244927)"><g><path d="M 0.78125 -4.65625 L 2.6875 -4.640625 C 3.175781 -4.640625 3.609375 -4.535156 3.984375 -4.328125 C 4.359375 -4.128906 4.644531 -3.851562 4.84375 -3.5 C 5.050781 -3.144531 5.15625 -2.742188 5.15625 -2.296875 C 5.15625 -1.835938 5.046875 -1.429688 4.828125 -1.078125 C 4.617188 -0.734375 4.328125 -0.460938 3.953125 -0.265625 C 3.578125 -0.078125 3.144531 0.015625 2.65625 0.015625 L 0.75 0 Z M 2.625 -0.40625 C 3.03125 -0.40625 3.382812 -0.484375 3.6875 -0.640625 C 4 -0.796875 4.238281 -1.015625 4.40625 -1.296875 C 4.582031 -1.585938 4.671875 -1.921875 4.671875 -2.296875 C 4.671875 -2.660156 4.585938 -2.984375 4.421875 -3.265625 C 4.253906 -3.554688 4.019531 -3.785156 3.71875 -3.953125 C 3.414062 -4.117188 3.0625 -4.203125 2.65625 -4.203125 L 1.28125 -4.21875 L 1.25 -0.421875 Z M 2.625 -0.40625 "/></g></g></g><g fill="#000000" fill-opacity="1"><g transform="translate(165.653194, 90.708469)"><g/></g></g><g fill="#000000" fill-opacity="1"><g transform="translate(171.401835, 91.705533)"><g><path d="M 3.859375 -0.203125 L 1.359375 -0.890625 L 0.515625 0.140625 L 0.015625 0 L 3.3125 -3.90625 L 3.78125 -3.78125 L 4.578125 1.28125 L 4.078125 1.140625 Z M 3.8125 -0.640625 L 3.40625 -3.34375 L 1.65625 -1.234375 Z M 3.8125 -0.640625 "/></g></g></g><g fill="#000000" fill-opacity="1"><g transform="translate(179.795324, 94.386654)"><g><path d="M 3.578125 1.640625 L 3.234375 -0.15625 C 3.109375 -0.1875 2.988281 -0.226562 2.875 -0.28125 L 1.75 -0.8125 L 1.140625 0.515625 L 0.6875 0.3125 L 2.625 -3.921875 L 4.203125 -3.1875 C 4.742188 -2.9375 5.101562 -2.613281 5.28125 -2.21875 C 5.46875 -1.820312 5.460938 -1.398438 5.265625 -0.953125 C 5.109375 -0.617188 4.894531 -0.375 4.625 -0.21875 C 4.363281 -0.0703125 4.054688 -0.0195312 3.703125 -0.0625 L 4.0625 1.859375 Z M 3.03125 -0.6875 C 3.445312 -0.488281 3.8125 -0.429688 4.125 -0.515625 C 4.4375 -0.597656 4.671875 -0.8125 4.828125 -1.15625 C 4.984375 -1.5 4.988281 -1.804688 4.84375 -2.078125 C 4.707031 -2.359375 4.429688 -2.597656 4.015625 -2.796875 L 2.90625 -3.3125 L 1.921875 -1.203125 Z M 3.03125 -0.6875 "/></g></g></g><g fill="#000000" fill-opacity="1"><g transform="translate(187.701152, 98.38318)"><g><path d="M 1.671875 1.15625 C 1.378906 0.96875 1.132812 0.738281 0.9375 0.46875 C 0.738281 0.195312 0.617188 -0.0546875 0.578125 -0.296875 L 0.9375 -0.5 C 0.976562 -0.28125 1.085938 -0.0507812 1.265625 0.1875 C 1.441406 0.4375 1.65625 0.640625 1.90625 0.796875 C 2.25 1.023438 2.550781 1.128906 2.8125 1.109375 C 3.070312 1.097656 3.265625 0.992188 3.390625 0.796875 C 3.492188 0.640625 3.53125 0.484375 3.5 0.328125 C 3.476562 0.179688 3.410156 0.0351562 3.296875 -0.109375 C 3.191406 -0.253906 3.039062 -0.429688 2.84375 -0.640625 C 2.601562 -0.898438 2.414062 -1.125 2.28125 -1.3125 C 2.15625 -1.5 2.078125 -1.703125 2.046875 -1.921875 C 2.015625 -2.148438 2.078125 -2.378906 2.234375 -2.609375 C 2.359375 -2.804688 2.523438 -2.953125 2.734375 -3.046875 C 2.953125 -3.140625 3.195312 -3.164062 3.46875 -3.125 C 3.75 -3.082031 4.046875 -2.957031 4.359375 -2.75 C 4.578125 -2.601562 4.769531 -2.425781 4.9375 -2.21875 C 5.113281 -2.019531 5.25 -1.816406 5.34375 -1.609375 L 4.984375 -1.375 C 4.890625 -1.582031 4.765625 -1.773438 4.609375 -1.953125 C 4.460938 -2.128906 4.300781 -2.273438 4.125 -2.390625 C 3.789062 -2.609375 3.488281 -2.707031 3.21875 -2.6875 C 2.957031 -2.675781 2.757812 -2.566406 2.625 -2.359375 C 2.519531 -2.203125 2.488281 -2.046875 2.53125 -1.890625 C 2.570312 -1.734375 2.644531 -1.582031 2.75 -1.4375 C 2.851562 -1.289062 3.007812 -1.113281 3.21875 -0.90625 C 3.457031 -0.644531 3.640625 -0.421875 3.765625 -0.234375 C 3.898438 -0.0546875 3.976562 0.132812 4 0.34375 C 4.03125 0.5625 3.96875 0.789062 3.8125 1.03125 C 3.6875 1.226562 3.515625 1.375 3.296875 1.46875 C 3.085938 1.5625 2.84375 1.585938 2.5625 1.546875 C 2.289062 1.503906 1.992188 1.375 1.671875 1.15625 Z M 1.671875 1.15625 "/></g></g></g><g fill="#000000" fill-opacity="1"><g transform="translate(194.348371, 103.089821)"><g><path d="M 3.5625 1.53125 L 1.625 -0.203125 L 0.390625 0.359375 L 0.015625 0.015625 L 4.703125 -2.03125 L 5.0625 -1.71875 L 3.53125 3.171875 L 3.15625 2.828125 Z M 3.703125 1.125 L 4.53125 -1.484375 L 2.03125 -0.375 Z M 3.703125 1.125 "/></g></g></g><g fill="#000000" fill-opacity="1"><g transform="translate(200.679601, 109.231815)"><g><path d="M 4.078125 -2.375 L 4.390625 -1.984375 L 1.125 0.703125 L 2.78125 2.71875 L 2.453125 2.984375 L 0.484375 0.578125 Z M 4.078125 -2.375 "/></g></g></g><g fill="#000000" fill-opacity="1"><g transform="translate(205.536891, 115.556899)"><g><path d="M 2.953125 2.515625 L 1.609375 0.28125 L 0.265625 0.453125 L 0.015625 0.015625 L 5.09375 -0.546875 L 5.34375 -0.140625 L 2.4375 4.078125 L 2.171875 3.625 Z M 3.203125 2.15625 L 4.765625 -0.09375 L 2.0625 0.234375 Z M 3.203125 2.15625 "/></g></g></g><g fill="#000000" fill-opacity="1"><g transform="translate(209.800837, 123.259961)"><g><path d="M 6.03125 2.59375 L 1.703125 4.3125 L 1.5625 3.9375 L 3.953125 -0.234375 L 0.453125 1.15625 L 0.28125 0.703125 L 4.609375 -1.015625 L 4.75 -0.640625 L 2.34375 3.53125 L 5.859375 2.140625 Z M 6.03125 2.59375 "/></g></g></g><g fill="#000000" fill-opacity="1"><g transform="translate(100.327607, 157.859852)"><g><path d="M 0.46875 1.984375 C 0.375 1.648438 0.34375 1.316406 0.375 0.984375 C 0.40625 0.648438 0.488281 0.375 0.625 0.15625 L 1.03125 0.25 C 0.914062 0.445312 0.84375 0.695312 0.8125 1 C 0.78125 1.300781 0.800781 1.59375 0.875 1.875 C 0.976562 2.28125 1.128906 2.5625 1.328125 2.71875 C 1.535156 2.875 1.757812 2.925781 2 2.875 C 2.175781 2.820312 2.300781 2.726562 2.375 2.59375 C 2.445312 2.46875 2.492188 2.316406 2.515625 2.140625 C 2.535156 1.960938 2.539062 1.722656 2.53125 1.421875 C 2.53125 1.066406 2.546875 0.773438 2.578125 0.546875 C 2.609375 0.328125 2.6875 0.125 2.8125 -0.0625 C 2.9375 -0.25 3.132812 -0.378906 3.40625 -0.453125 C 3.632812 -0.515625 3.859375 -0.507812 4.078125 -0.4375 C 4.296875 -0.363281 4.488281 -0.21875 4.65625 0 C 4.832031 0.226562 4.96875 0.53125 5.0625 0.90625 C 5.132812 1.15625 5.164062 1.410156 5.15625 1.671875 C 5.15625 1.929688 5.117188 2.171875 5.046875 2.390625 L 4.625 2.3125 C 4.695312 2.101562 4.734375 1.878906 4.734375 1.640625 C 4.734375 1.410156 4.707031 1.195312 4.65625 1 C 4.5625 0.601562 4.410156 0.320312 4.203125 0.15625 C 4.003906 0 3.785156 -0.046875 3.546875 0.015625 C 3.367188 0.0664062 3.238281 0.160156 3.15625 0.296875 C 3.070312 0.429688 3.019531 0.585938 3 0.765625 C 2.988281 0.953125 2.988281 1.191406 3 1.484375 C 2.988281 1.835938 2.972656 2.125 2.953125 2.34375 C 2.941406 2.5625 2.875 2.757812 2.75 2.9375 C 2.625 3.125 2.421875 3.253906 2.140625 3.328125 C 1.910156 3.390625 1.6875 3.382812 1.46875 3.3125 C 1.25 3.238281 1.050781 3.09375 0.875 2.875 C 0.695312 2.65625 0.5625 2.359375 0.46875 1.984375 Z M 0.46875 1.984375 "/></g></g></g><g fill="#000000" fill-opacity="1"><g transform="translate(102.782809, 166.12789)"><g><path d="M 1.078125 2.578125 C 0.890625 2.148438 0.816406 1.722656 0.859375 1.296875 C 0.898438 0.867188 1.039062 0.488281 1.28125 0.15625 C 1.53125 -0.175781 1.863281 -0.4375 2.28125 -0.625 C 2.6875 -0.800781 3.09375 -0.863281 3.5 -0.8125 C 3.914062 -0.757812 4.289062 -0.601562 4.625 -0.34375 C 4.96875 -0.0820312 5.234375 0.257812 5.421875 0.6875 C 5.597656 1.101562 5.664062 1.519531 5.625 1.9375 C 5.59375 2.363281 5.453125 2.742188 5.203125 3.078125 C 4.960938 3.410156 4.640625 3.664062 4.234375 3.84375 C 3.816406 4.03125 3.398438 4.097656 2.984375 4.046875 C 2.578125 3.992188 2.203125 3.835938 1.859375 3.578125 C 1.515625 3.328125 1.253906 2.992188 1.078125 2.578125 Z M 1.5 2.40625 C 1.644531 2.738281 1.847656 3.003906 2.109375 3.203125 C 2.367188 3.410156 2.664062 3.53125 3 3.5625 C 3.34375 3.601562 3.6875 3.550781 4.03125 3.40625 C 4.363281 3.257812 4.628906 3.050781 4.828125 2.78125 C 5.023438 2.507812 5.140625 2.203125 5.171875 1.859375 C 5.210938 1.523438 5.160156 1.191406 5.015625 0.859375 C 4.859375 0.515625 4.644531 0.238281 4.375 0.03125 C 4.101562 -0.164062 3.800781 -0.285156 3.46875 -0.328125 C 3.132812 -0.367188 2.800781 -0.316406 2.46875 -0.171875 C 2.125 -0.0234375 1.847656 0.179688 1.640625 0.453125 C 1.441406 0.734375 1.328125 1.039062 1.296875 1.375 C 1.273438 1.71875 1.34375 2.0625 1.5 2.40625 Z M 1.5 2.40625 "/></g></g></g><g fill="#000000" fill-opacity="1"><g transform="translate(107.205299, 175.216496)"><g><path d="M 4.21875 -1.234375 L 2.6875 -0.25 L 3.984375 1.78125 L 3.625 2.015625 L 2.328125 -0.015625 L 0.671875 1.046875 L 0.40625 0.625 L 4.328125 -1.890625 L 6.046875 0.796875 L 5.671875 1.03125 Z M 4.21875 -1.234375 "/></g></g></g><g fill="#000000" fill-opacity="1"><g transform="translate(112.194529, 182.367474)"><g><path d="M 4.265625 -1.515625 L 3.203125 -2.734375 L 3.53125 -3.015625 L 6 -0.1875 L 5.671875 0.09375 L 4.59375 -1.140625 L 1.40625 1.625 L 1.078125 1.25 Z M 4.265625 -1.515625 "/></g></g></g><g fill="#000000" fill-opacity="1"><g transform="translate(117.862684, 188.538544)"><g><path d="M 8.484375 0.90625 L 4.3125 3.53125 L 3.90625 3.1875 L 5.375 -0.75 L 1.796875 1.46875 L 1.40625 1.140625 L 3.140625 -3.453125 L 3.53125 -3.140625 L 2.046875 0.8125 L 5.65625 -1.40625 L 6 -1.109375 L 4.5 2.875 L 8.125 0.609375 Z M 8.484375 0.90625 "/></g></g></g><g fill="#000000" fill-opacity="1"><g transform="translate(127.432747, 195.684162)"><g><path d="M 3.8125 0.703125 L 1.53125 -0.5625 L 0.46875 0.25 L 0.015625 0 L 4.125 -3.046875 L 4.546875 -2.8125 L 4.15625 2.296875 L 3.703125 2.046875 Z M 3.859375 0.265625 L 4.078125 -2.46875 L 1.90625 -0.828125 Z M 3.859375 0.265625 "/></g></g></g><g fill="#000000" fill-opacity="1"><g transform="translate(135.731201, 199.877193)"><g><path d="M 3.703125 1.34375 L 3.21875 -0.421875 C 3.09375 -0.441406 2.96875 -0.472656 2.84375 -0.515625 L 1.671875 -0.953125 L 1.171875 0.421875 L 0.703125 0.25 L 2.296875 -4.125 L 3.9375 -3.515625 C 4.5 -3.316406 4.882812 -3.023438 5.09375 -2.640625 C 5.3125 -2.253906 5.335938 -1.832031 5.171875 -1.375 C 5.046875 -1.03125 4.851562 -0.769531 4.59375 -0.59375 C 4.34375 -0.425781 4.035156 -0.347656 3.671875 -0.359375 L 4.203125 1.53125 Z M 2.96875 -0.9375 C 3.40625 -0.78125 3.773438 -0.753906 4.078125 -0.859375 C 4.378906 -0.960938 4.59375 -1.191406 4.71875 -1.546875 C 4.84375 -1.898438 4.820312 -2.210938 4.65625 -2.484375 C 4.5 -2.753906 4.203125 -2.96875 3.765625 -3.125 L 2.609375 -3.546875 L 1.8125 -1.359375 Z M 2.96875 -0.9375 "/></g></g></g><g fill="#000000" fill-opacity="1"><g transform="translate(144.618467, 202.725696)"><g><path d="M 4.046875 0.375 L 3.96875 0.78125 L 0.734375 0.140625 L 1.640625 -4.421875 L 4.765625 -3.796875 L 4.671875 -3.375 L 2.03125 -3.90625 L 1.71875 -2.28125 L 4.09375 -1.8125 L 4.015625 -1.40625 L 1.640625 -1.875 L 1.296875 -0.171875 Z M 4.046875 0.375 "/></g></g></g><g fill="#000000" fill-opacity="1"><g transform="translate(153.444116, 204.086351)"><g/></g></g><g fill="#000000" fill-opacity="1"><g transform="translate(159.689973, 204.324681)"><g><path d="M 0.421875 -4.6875 L 2.328125 -4.828125 C 2.804688 -4.859375 3.238281 -4.785156 3.625 -4.609375 C 4.019531 -4.441406 4.332031 -4.191406 4.5625 -3.859375 C 4.800781 -3.523438 4.9375 -3.132812 4.96875 -2.6875 C 5 -2.226562 4.921875 -1.816406 4.734375 -1.453125 C 4.546875 -1.085938 4.269531 -0.789062 3.90625 -0.5625 C 3.550781 -0.34375 3.132812 -0.21875 2.65625 -0.1875 L 0.75 -0.046875 Z M 2.59375 -0.609375 C 2.988281 -0.628906 3.332031 -0.734375 3.625 -0.921875 C 3.925781 -1.109375 4.148438 -1.347656 4.296875 -1.640625 C 4.441406 -1.941406 4.503906 -2.28125 4.484375 -2.65625 C 4.453125 -3.019531 4.34375 -3.335938 4.15625 -3.609375 C 3.96875 -3.878906 3.710938 -4.082031 3.390625 -4.21875 C 3.078125 -4.351562 2.722656 -4.410156 2.328125 -4.390625 L 0.953125 -4.296875 L 1.21875 -0.515625 Z M 2.59375 -0.609375 "/></g></g></g><g fill="#000000" fill-opacity="1"><g transform="translate(169.653421, 203.221089)"><g><path d="M 3.84375 -1.328125 L 3.9375 -0.921875 L 0.734375 -0.171875 L -0.328125 -4.703125 L 2.765625 -5.421875 L 2.859375 -5 L 0.25 -4.390625 L 0.640625 -2.78125 L 2.984375 -3.328125 L 3.078125 -2.921875 L 0.734375 -2.375 L 1.125 -0.6875 Z M 3.84375 -1.328125 "/></g></g></g><g fill="#000000" fill-opacity="1"><g transform="translate(178.306483, 200.847843)"><g><path d="M 2.5625 -6.046875 L 2.375 -0.953125 L 1.921875 -0.78125 L -1.71875 -4.3125 L -1.234375 -4.515625 L 1.921875 -1.4375 L 2.09375 -5.859375 Z M 2.5625 -6.046875 "/></g></g></g><g fill="#000000" fill-opacity="1"><g transform="translate(186.668793, 197.097471)"><g><path d="M 3.265625 -2.421875 L 3.484375 -2.0625 L 0.640625 -0.390625 L -1.734375 -4.390625 L 1.015625 -6.015625 L 1.234375 -5.640625 L -1.078125 -4.265625 L -0.234375 -2.84375 L 1.828125 -4.0625 L 2.046875 -3.71875 L -0.015625 -2.5 L 0.859375 -1 Z M 3.265625 -2.421875 "/></g></g></g><g fill="#000000" fill-opacity="1"><g transform="translate(194.190375, 192.226114)"><g><path d="M -2.359375 -4.078125 L -1.96875 -4.390625 L 0.703125 -1.109375 L 2.734375 -2.765625 L 3 -2.4375 L 0.578125 -0.46875 Z M -2.359375 -4.078125 "/></g></g></g><g fill="#000000" fill-opacity="1"><g transform="translate(200.562138, 186.675978)"><g><path d="M 1.90625 -2.046875 C 1.59375 -1.703125 1.226562 -1.457031 0.8125 -1.3125 C 0.40625 -1.175781 0.00390625 -1.148438 -0.390625 -1.234375 C -0.796875 -1.316406 -1.164062 -1.507812 -1.5 -1.8125 C -1.832031 -2.101562 -2.0625 -2.445312 -2.1875 -2.84375 C -2.320312 -3.238281 -2.335938 -3.644531 -2.234375 -4.0625 C -2.128906 -4.488281 -1.921875 -4.875 -1.609375 -5.21875 C -1.304688 -5.5625 -0.953125 -5.800781 -0.546875 -5.9375 C -0.148438 -6.070312 0.242188 -6.09375 0.640625 -6 C 1.046875 -5.914062 1.414062 -5.726562 1.75 -5.4375 C 2.082031 -5.132812 2.3125 -4.785156 2.4375 -4.390625 C 2.570312 -4.003906 2.59375 -3.601562 2.5 -3.1875 C 2.40625 -2.769531 2.207031 -2.390625 1.90625 -2.046875 Z M 1.578125 -2.34375 C 1.816406 -2.613281 1.972656 -2.914062 2.046875 -3.25 C 2.128906 -3.582031 2.113281 -3.90625 2 -4.21875 C 1.894531 -4.539062 1.707031 -4.828125 1.4375 -5.078125 C 1.164062 -5.316406 0.863281 -5.472656 0.53125 -5.546875 C 0.207031 -5.617188 -0.113281 -5.597656 -0.4375 -5.484375 C -0.757812 -5.378906 -1.039062 -5.191406 -1.28125 -4.921875 C -1.53125 -4.640625 -1.691406 -4.332031 -1.765625 -4 C -1.847656 -3.664062 -1.835938 -3.335938 -1.734375 -3.015625 C -1.640625 -2.691406 -1.457031 -2.410156 -1.1875 -2.171875 C -0.914062 -1.921875 -0.609375 -1.757812 -0.265625 -1.6875 C 0.0664062 -1.625 0.394531 -1.644531 0.71875 -1.75 C 1.039062 -1.863281 1.328125 -2.0625 1.578125 -2.34375 Z M 1.578125 -2.34375 "/></g></g></g><g fill="#000000" fill-opacity="1"><g transform="translate(207.018292, 178.886868)"><g><path d="M -2.578125 -4.609375 C -2.253906 -5.109375 -1.882812 -5.421875 -1.46875 -5.546875 C -1.050781 -5.679688 -0.632812 -5.617188 -0.21875 -5.359375 C 0.195312 -5.085938 0.4375 -4.734375 0.5 -4.296875 C 0.5625 -3.867188 0.429688 -3.40625 0.109375 -2.90625 L -0.5625 -1.84375 L 0.671875 -1.046875 L 0.40625 -0.625 L -3.515625 -3.125 Z M -0.265625 -3.125 C -0.0234375 -3.507812 0.078125 -3.859375 0.046875 -4.171875 C 0.015625 -4.484375 -0.15625 -4.742188 -0.46875 -4.953125 C -0.789062 -5.148438 -1.101562 -5.195312 -1.40625 -5.09375 C -1.707031 -4.988281 -1.976562 -4.742188 -2.21875 -4.359375 L -2.890625 -3.3125 L -0.9375 -2.078125 Z M -0.265625 -3.125 "/></g></g></g><g fill="#000000" fill-opacity="1"><g transform="translate(211.714651, 170.860139)"><g><path d="M 1.234375 -3.875 L 1.625 -3.703125 L 0.296875 -0.6875 L -3.96875 -2.5625 L -2.6875 -5.484375 L -2.28125 -5.3125 L -3.359375 -2.84375 L -1.84375 -2.171875 L -0.875 -4.375 L -0.5 -4.21875 L -1.46875 -2.015625 L 0.109375 -1.3125 Z M 1.234375 -3.875 "/></g></g></g><g fill="#000000" fill-opacity="1"><g transform="translate(215.020305, 162.5173)"><g><path d="M 1.015625 -3.8125 L -0.71875 -3.171875 C -0.726562 -3.035156 -0.75 -2.910156 -0.78125 -2.796875 L -1.09375 -1.578125 L 0.328125 -1.203125 L 0.1875 -0.71875 L -4.3125 -1.921875 L -3.859375 -3.625 C -3.703125 -4.195312 -3.441406 -4.609375 -3.078125 -4.859375 C -2.722656 -5.109375 -2.304688 -5.164062 -1.828125 -5.03125 C -1.484375 -4.9375 -1.210938 -4.769531 -1.015625 -4.53125 C -0.816406 -4.289062 -0.707031 -3.988281 -0.6875 -3.625 L 1.15625 -4.3125 Z M -1.1875 -2.890625 C -1.070312 -3.328125 -1.082031 -3.691406 -1.21875 -3.984375 C -1.351562 -4.273438 -1.597656 -4.46875 -1.953125 -4.5625 C -2.316406 -4.664062 -2.625 -4.617188 -2.875 -4.421875 C -3.132812 -4.234375 -3.320312 -3.921875 -3.4375 -3.484375 L -3.75 -2.28125 L -1.5 -1.6875 Z M -1.1875 -2.890625 "/></g></g></g></svg>