<?xml version="1.0" encoding="UTF-8"?>
<svg id="Layer_2" data-name="Layer 2" xmlns="http://www.w3.org/2000/svg" viewBox="0 0 512 416.15">
  <defs>
    <style>
      .cls-1 {
        fill: #d5f6f5;
      }

      .cls-2 {
        fill: #81e3e2;
      }
    </style>
  </defs>
  <g id="Layer_1-2" data-name="Layer 1">
    <polygon class="cls-2" points="501.8 72.22 142.32 72.22 142.32 40.81 64.72 40.81 64.72 72.22 10.2 72.22 10.2 332.78 501.8 332.78 501.8 72.22"/>
    <rect class="cls-1" x="200.24" y="332.78" width="111.51" height="73.17"/>
    <polygon class="cls-1" points="64.72 72.22 64.72 40.81 142.32 40.81 142.32 72.22 501.8 72.22 501.8 10.2 10.2 10.2 10.2 72.22 64.72 72.22"/>
    <path class="cls-1" d="M465.08,293.29v-34.78s0,0,0,0h-22.48c-1.92-8.23-5.17-15.95-9.5-22.92,0,0,0,0,0,0l15.91-15.91h0s-24.59-24.59-24.59-24.59h0l-15.91,15.91s0,0,0,0c-6.97-4.34-14.69-7.59-22.92-9.5v-22.49h0s-34.78,0-34.78,0h0v22.49c-8.23,1.92-15.95,5.16-22.92,9.5,0,0,0,0,0,0l-15.91-15.91h0l-24.59,24.59h0s15.91,15.91,15.91,15.91c0,0,0,0,0,0-4.34,6.97-7.59,14.69-9.5,22.92h-22.49v34.78s0,0,0,0h22.48c1.92,8.23,5.17,15.95,9.5,22.92,0,0,0,0,0,0l-15.91,15.91h0s24.59,24.59,24.59,24.59h0l15.91-15.91s0,0,0,0c6.97,4.34,14.69,7.59,22.92,9.5v22.48s0,0,0,0h34.78v-22.49c8.23-1.92,15.95-5.17,22.92-9.5,0,0,0,0,0,0l15.91,15.91h0l24.59-24.59h0s-15.91-15.91-15.91-15.91c0,0,0,0,0,0,4.34-6.97,7.59-14.69,9.5-22.92h22.49s0,0,0,0Zm-96.89,14.83c-17.79,0-32.21-14.42-32.21-32.21s14.42-32.21,32.21-32.21,32.21,14.42,32.21,32.21-14.42,32.21-32.21,32.21Z"/>
    <g>
      <path d="M358.14,416.15c5.63,0,10.2-4.57,10.2-10.2s-4.57-10.2-10.2-10.2h-36.18v-34.61l7.69-7.69c3.55,1.77,7.2,3.28,10.95,4.54v14.79c0,2.7,1.08,5.3,2.99,7.21,1.91,1.91,4.51,2.99,7.21,2.99h34.78c5.63,0,10.2-4.57,10.2-10.2v-14.79c3.75-1.26,7.41-2.78,10.95-4.54l10.46,10.46c3.98,3.98,10.44,3.98,14.42,0l20.94-20.94h49.24c5.63,0,10.2-4.57,10.2-10.2V10.2c0-5.63-4.57-10.2-10.2-10.2H10.2C4.57,0,0,4.57,0,10.2V332.78c0,5.63,4.57,10.2,10.2,10.2H190.04v52.78h-36.18c-5.63,0-10.2,4.57-10.2,10.2s4.57,10.2,10.2,10.2h204.27ZM20.4,20.4H491.6V62.02H152.52v-21.21c0-5.63-4.57-10.2-10.2-10.2H64.72c-5.63,0-10.2,4.57-10.2,10.2v21.21H20.4V20.4ZM210.44,395.76v-52.78h73.38l17.73,17.73v35.04h-91.12Zm215.47-72.31l8.67,8.67-10.17,10.17-8.69-8.69c-.77-.77-1.67-1.42-2.65-1.91-2.87-1.44-6.25-1.44-9.12,0-.28,.14-.56,.3-.83,.46-6.15,3.83-12.82,6.59-19.84,8.23-4.62,1.08-7.89,5.19-7.89,9.93v12.29h-14.38v-12.29c0-4.74-3.27-8.86-7.89-9.93-7.02-1.63-13.69-4.4-19.84-8.23-.27-.17-.55-.32-.83-.46-2.87-1.43-6.25-1.43-9.12,0-.98,.49-1.88,1.14-2.65,1.91l-8.69,8.69-10.17-10.17,8.67-8.67c1.9-1.89,3.02-4.48,3.02-7.24,0-1.9-.53-3.77-1.54-5.39-3.83-6.15-6.6-12.82-8.23-19.84-1.08-4.62-5.19-7.89-9.93-7.89h-12.29v-14.38h12.29c4.74,0,8.86-3.27,9.93-7.89,1.64-7.02,4.4-13.69,8.23-19.84,1.01-1.62,1.54-3.48,1.54-5.39,0-2.76-1.12-5.36-3.02-7.24l-8.67-8.67,10.17-10.17,8.69,8.69c.77,.77,1.67,1.42,2.65,1.91,2.87,1.44,6.26,1.44,9.12,0,.28-.14,.56-.3,.83-.46,6.15-3.83,12.82-6.59,19.84-8.23,4.62-1.08,7.89-5.19,7.89-9.93v-12.29h14.38v12.29c0,4.74,3.27,8.86,7.89,9.93,7.02,1.63,13.69,4.4,19.84,8.23,.27,.17,.55,.32,.83,.46,2.87,1.44,6.26,1.43,9.12,0,.98-.49,1.88-1.14,2.65-1.91l8.69-8.69,10.17,10.17-8.67,8.67c-1.9,1.89-3.02,4.48-3.02,7.24,0,1.9,.53,3.77,1.54,5.39,3.83,6.15,6.6,12.82,8.23,19.84,1.08,4.62,5.19,7.89,9.93,7.89h12.29v14.38h-12.29c-4.74,0-8.86,3.27-9.93,7.89-1.64,7.02-4.4,13.69-8.23,19.84-1.01,1.62-1.54,3.48-1.54,5.39,0,2.77,1.12,5.36,3.02,7.25Zm-405.51-.86V82.42h44.32c5.63,0,10.2-4.57,10.2-10.2v-21.21h57.2v21.21c0,5.63,4.57,10.2,10.2,10.2H491.6v240.16h-37.71l-8.14-8.14c1.77-3.55,3.28-7.2,4.54-10.95h14.79c5.63,0,10.2-4.57,10.2-10.2v-34.78c0-5.63-4.57-10.2-10.2-10.2h-14.79c-1.26-3.75-2.78-7.41-4.54-10.95l10.46-10.46c3.98-3.98,3.98-10.44,0-14.42l-24.59-24.59c-3.98-3.98-10.44-3.98-14.42,0l-10.46,10.46c-3.55-1.77-7.2-3.28-10.95-4.54v-14.79c0-5.63-4.57-10.2-10.2-10.2h-34.78c-5.63,0-10.2,4.57-10.2,10.2v14.79c-3.75,1.26-7.41,2.78-10.95,4.54l-10.46-10.46c-3.98-3.98-10.44-3.98-14.42,0l-24.59,24.59c-3.98,3.98-3.98,10.44,0,14.42l10.46,10.46c-1.77,3.55-3.28,7.2-4.54,10.95h-14.79c-5.63,0-10.2,4.57-10.2,10.2v34.78c0,5.63,4.57,10.2,10.2,10.2h14.79c1.26,3.75,2.78,7.41,4.54,10.95l-8.14,8.14H20.4Z"/>
      <path d="M467.12,51.51h2.04c5.63,0,10.2-4.57,10.2-10.2s-4.57-10.2-10.2-10.2h-2.04c-5.63,0-10.2,4.57-10.2,10.2,0,5.63,4.57,10.2,10.2,10.2Z"/>
      <path d="M430.41,51.51h2.04c5.63,0,10.2-4.57,10.2-10.2s-4.57-10.2-10.2-10.2h-2.04c-5.63,0-10.2,4.57-10.2,10.2s4.57,10.2,10.2,10.2Z"/>
      <path d="M393.69,51.51h2.04c5.63,0,10.2-4.57,10.2-10.2s-4.57-10.2-10.2-10.2h-2.04c-5.63,0-10.2,4.57-10.2,10.2s4.57,10.2,10.2,10.2Z"/>
      <path d="M441.63,143.82h6.12c5.63,0,10.2-4.57,10.2-10.2s-4.57-10.2-10.2-10.2h-6.12c-5.63,0-10.2,4.57-10.2,10.2s4.57,10.2,10.2,10.2Z"/>
      <path d="M54.06,133.62c0,5.63,4.57,10.2,10.2,10.2H405.93c5.63,0,10.2-4.57,10.2-10.2s-4.57-10.2-10.2-10.2H64.25c-5.63,0-10.2,4.57-10.2,10.2Z"/>
      <path d="M288.64,163.2H64.25c-5.63,0-10.2,4.57-10.2,10.2s4.57,10.2,10.2,10.2h224.38c5.63,0,10.2-4.57,10.2-10.2,0-5.63-4.57-10.2-10.2-10.2Z"/>
      <path d="M368.19,233.48c-23.39,0-42.41,19.03-42.41,42.41s19.03,42.42,42.41,42.42,42.41-19.03,42.41-42.41c0-23.39-19.03-42.42-42.41-42.42Zm0,64.43c-12.14,0-22.02-9.88-22.02-22.02s9.88-22.02,22.02-22.02,22.02,9.88,22.02,22.02-9.88,22.02-22.02,22.02Z"/>
    </g>
  </g>
</svg>