<?xml version="1.0" encoding="UTF-8"?>
<svg id="Layer_2" data-name="Layer 2" xmlns="http://www.w3.org/2000/svg" viewBox="0 0 116.4 112.34">
  <defs>
    <style>
      .cls-1 {
        fill: #ffb331;
      }

      .cls-2, .cls-3 {
        fill: none;
        stroke: #000;
        stroke-miterlimit: 10;
        stroke-width: 3px;
      }

      .cls-4 {
        fill: #ff9102;
      }

      .cls-5 {
        fill: #dbdfee;
      }

      .cls-6 {
        fill: #d5f6f5;
      }

      .cls-7 {
        fill: #81e3e2;
      }

      .cls-3 {
        stroke-linecap: round;
      }
    </style>
  </defs>
  <g id="Layer_1-2" data-name="Layer 1">
    <rect class="cls-7" x="45.04" y="93.03" width="26.44" height="17.81"/>
    <rect class="cls-6" x="1.5" y="22.56" width="113.39" height="73.78" rx="5.59" ry="5.59"/>
    <path class="cls-7" d="M114.9,28.15v53.21H1.5V28.15c0-3.09,2.5-5.59,5.59-5.59H109.31c3.09,0,5.59,2.5,5.59,5.59Z"/>
    <polygon class="cls-7" points="108.04 27.31 102.13 26.14 98.94 35.15 105.4 36.21 108.04 27.31"/>
    <path class="cls-1" d="M73.1,15.98c-.76,4.18,2.02,8.19,6.21,8.95s8.19-2.02,8.95-6.21c.76-4.18-2.02-8.19-6.21-8.95,0,0,0,0,0,0-4.18-.75-8.18,2.03-8.94,6.21Z"/>
    <path class="cls-6" d="M85.41,5.22c5.01,5.13,11.44,8.64,18.46,10.08,1.61,4.66,.34,8.51-2.16,12-7.08-1.1-14.33-.06-20.81,3-1.5-9.42-.17-17.87,4.51-25.08Z"/>
    <path class="cls-7" d="M110.52,28.89l-8.81-1.58h0l2.15-12.01h0l8.81,1.58c1.46,.26,2.44,1.66,2.17,3.12h0l-1.2,6.7c-.26,1.46-1.66,2.44-3.12,2.17h0Z"/>
    <path class="cls-7" d="M77.98,32.39h0c1.36,.26,2.66-.64,2.92-1.99,0,0,0,0,0,0l4.51-25.14c.25-1.36-.64-2.67-2-2.93h0c-1.36-.24-2.66,.65-2.93,2l-4.54,25.15c-.24,1.37,.67,2.68,2.04,2.92Z"/>
    <rect class="cls-7" x="10.98" y="1.5" width="39.7" height="31.5"/>
    <path class="cls-5" d="M23.74,12.34v9.82c-.01,1.47,1.17,2.68,2.64,2.69,.48,0,.94-.12,1.36-.35l8.85-4.92c1.29-.71,1.76-2.33,1.05-3.61-.24-.44-.61-.8-1.05-1.05l-8.89-4.91c-1.28-.72-2.9-.26-3.62,1.02-.22,.4-.34,.85-.34,1.31Z"/>
    <rect class="cls-4" x="27.98" y="39.08" width="51.07" height="33.49"/>
    <polyline class="cls-1" points="27.98 39.08 53.51 55.82 55.95 54.22 79.05 39.08"/>
    <path d="M115.52,24.78l.81-4.5c.41-2.28-1.1-4.46-3.38-4.88-3.78-1.41-15.48-.25-26-10.75,.16-2.21-1.5-4.13-3.71-4.29-2.21-.16-4.13,1.5-4.29,3.71l-.75,4.45c-3.38,.94-5.93,3.72-6.58,7.16-.33,1.8-.1,3.67,.65,5.34h-20.07V1.5c0-.83-.67-1.5-1.5-1.5H10.98c-.83,0-1.5,.67-1.5,1.5V21.06h-2.39c-3.91,0-7.08,3.18-7.09,7.09v62.6c0,3.91,3.18,7.08,7.09,7.09h5.05c.83,0,1.5-.67,1.5-1.5s-.67-1.5-1.5-1.5H7.09c-2.26,0-4.09-1.83-4.09-4.09v-7.89H73.81c.83,0,1.5-.67,1.5-1.5s-.67-1.5-1.5-1.5H3V28.15c0-2.26,1.83-4.09,4.09-4.09h2.39v8.94c0,.83,.67,1.5,1.5,1.5H50.68c.83,0,1.5-.67,1.5-1.5v-8.94h22.27c.26,.24,.52,.47,.81,.69l-.8,4.46c-.61,2.14,.63,4.36,2.76,4.98,2.14,.61,4.36-.63,4.98-2.77,5.5-2.44,11.54-3.43,17.54-2.88l-2.21,6.14c-.29,.78,.11,1.64,.89,1.93,.09,.03,.19,.06,.28,.07,5.88,1,6.51,1.08,6.7,1.08,.67,0,1.25-.44,1.44-1.08l1.94-6.54,1.47,.27c1.1,.2,2.22-.05,3.14-.68h0v50.13h-7.34c-.83,0-1.5,.67-1.5,1.5s.67,1.5,1.5,1.5h7.34v7.89c0,2.26-1.83,4.09-4.09,4.09H21.98c-.83,0-1.5,.67-1.5,1.5s.67,1.5,1.5,1.5h21.56v11.5h-8.09c-.83,0-1.5,.67-1.5,1.5s.67,1.5,1.5,1.5h45.62c.83,0,1.5-.67,1.5-1.5s-.67-1.5-1.5-1.5h-8.09v-11.5h36.33c3.91,0,7.08-3.18,7.09-7.09V28.15c0-1.18-.3-2.34-.88-3.37Zm-66.32,6.72H12.48V3H49.2V31.5Zm20.8,77.84h-23.46v-11.5h23.44l.02,11.5Zm4.6-93.09c.33-1.79,1.42-3.34,3-4.25l-1.66,9.26c-1.18-1.38-1.68-3.22-1.36-5.01h.02Zm3.6,14.66c-.55-.09-.91-.6-.83-1.15,0-.01,0-.02,0-.03,3.82-21.05-1.28,7.33,4.55-25.13,.08-.55,.59-.92,1.14-.84,.01,0,.03,0,.04,0,.55,.09,.91,.6,.83,1.15,0,.01,0,.02,0,.03h0l-4.51,25.15c-.09,.54-.6,.91-1.15,.82-.02,0-.05,0-.07-.01Zm4.63-3c.36-2-1.3,7.26,3.52-19.61,4.52,3.95,9.92,6.76,15.74,8.22l-1.64,9.14c-5.95-.67-11.98,.08-17.58,2.2l-.04,.05Zm21.47,6.66l-3.39-.56,1.75-5,3.1,.56-1.46,5Zm6.44-7.11l-7.33-1.31,1.63-9.06,7.34,1.32c.65,.09,1.1,.68,1.01,1.33,0,.02,0,.03,0,.05h0l-1.18,6.67c-.11,.64-.72,1.07-1.36,.96-.02,0-.04,0-.06-.01l-.04,.05Z"/>
    <line class="cls-3" x1="81.88" y1="81.68" x2="97.88" y2="81.68"/>
    <rect class="cls-2" x="27.98" y="39.08" width="52.22" height="33.49" rx="2.64" ry="2.64"/>
    <line class="cls-3" x1="53.51" y1="55.82" x2="79.05" y2="40.38"/>
    <line class="cls-3" x1="28.93" y1="39.7" x2="53.51" y2="55.82"/>
  </g>
</svg>